HIERARCHY
ROOT Root
{
	OFFSET 0.00 0.00 0.00
	CHANNELS 6 Xposition Yposition Zposition Xrotation Yrotation Zrotation
	JOINT L_Femur
	{
		OFFSET 2.78527 0.00000 0.00000
		CHANNELS 3 Xrotation Yrotation Zrotation
		JOINT L_Tibia
		{
			OFFSET 0.00000 -16.41095 0.00000
			CHANNELS 3 Xrotation Yrotation Zrotation
			JOINT L_Foot
			{
				OFFSET 0.00000 -14.21163 0.00000
				CHANNELS 3 Xrotation Yrotation Zrotation
				JOINT L_Toe
				{
					OFFSET 0.00000 -1.60827 6.00215
					CHANNELS 3 Xrotation Yrotation Zrotation
					End Site
					{
						OFFSET 0.00000 0.00000 2.95275
					}
				}
			}
		}
	}
	JOINT R_Femur
	{
		OFFSET -2.78527 0.00000 0.00000
		CHANNELS 3 Xrotation Yrotation Zrotation
		JOINT R_Tibia
		{
			OFFSET 0.00000 -16.41095 0.00000
			CHANNELS 3 Xrotation Yrotation Zrotation
			JOINT R_Foot
			{
				OFFSET 0.00000 -14.21163 0.00000
				CHANNELS 3 Xrotation Yrotation Zrotation
				JOINT R_Toe
				{
					OFFSET 0.00000 -1.60827 6.00215
					CHANNELS 3 Xrotation Yrotation Zrotation
					End Site
					{
						OFFSET 0.00000 0.00000 2.95275
					}
				}
			}
		}
	}
	JOINT LowerBack
	{
		OFFSET 0.00000 0.03937 0.00000
		CHANNELS 3 Xrotation Yrotation Zrotation
		JOINT Thorax
		{
			OFFSET 0.00000 7.01329 0.00000
			CHANNELS 3 Xrotation Yrotation Zrotation
			JOINT Neck
			{
				OFFSET 0.00000 7.25825 0.00000
				CHANNELS 3 Xrotation Yrotation Zrotation
				JOINT Head
				{
					OFFSET 0.00000 5.63334 0.00000
					CHANNELS 3 Xrotation Yrotation Zrotation
					End Site
					{
						OFFSET 0.00000 4.52755 0.00000
					}
				}
			}
			JOINT L_Collar
			{
				OFFSET 0.00000 7.25825 0.00000
				CHANNELS 3 Xrotation Yrotation Zrotation
				JOINT L_Humerus
				{
					OFFSET 6.91821 -0.00003 0.00000
					CHANNELS 3 Xrotation Yrotation Zrotation
					JOINT L_Elbow
					{
						OFFSET 10.34006 -0.00004 0.00000
						CHANNELS 3 Xrotation Yrotation Zrotation
						JOINT L_Wrist
						{
							OFFSET 7.25554 -0.00003 0.00000
							CHANNELS 3 Xrotation Yrotation Zrotation
							JOINT L_Thumb
							{
								OFFSET 0.00000 0.00000 0.00000
								CHANNELS 3 Xrotation Yrotation Zrotation
								End Site
								{
									OFFSET 0.00000 0.00000 3.93700
								}
							}
							JOINT L_Wrist_End
							{
								OFFSET 3.93700 -0.00001 0.00000
								CHANNELS 3 Xrotation Yrotation Zrotation
							}
						}
					}
				}
			}
			JOINT R_Collar
			{
				OFFSET 0.00000 7.25825 0.00000
				CHANNELS 3 Xrotation Yrotation Zrotation
				JOINT R_Humerus
				{
					OFFSET -6.91821 -0.00003 0.00000
					CHANNELS 3 Xrotation Yrotation Zrotation
					JOINT R_Elbow
					{
						OFFSET -10.34006 -0.00004 0.00000
						CHANNELS 3 Xrotation Yrotation Zrotation
						JOINT R_Wrist
						{
							OFFSET -7.25554 -0.00003 0.00000
							CHANNELS 3 Xrotation Yrotation Zrotation
							JOINT R_Thumb
							{
								OFFSET 0.00000 0.00000 0.00000
								CHANNELS 3 Xrotation Yrotation Zrotation
								End Site
								{
									OFFSET 0.00000 0.00000 3.93700
								}
							}
							JOINT R_Wrist_End
							{
								OFFSET -5.39369 -0.00002 0.00000
								CHANNELS 3 Xrotation Yrotation Zrotation
							}
						}
					}
				}
			}
		}
	}
}
MOTION
Frames: 11
Frame Time: 0.066664
 -6.8682 32.9374 0.1532 4.4895 -8.3787 0.0639 -2.2494 27.5886 7.0677 2.2595 -0.0000 -0.0000 -5.3988 -12.4239 0.2715 -7.9082 0.0000 0.0000 -3.3785 4.2876 -5.5642 4.4826 -0.0000 0.0000 -8.3123 7.6971 1.5637 -9.1691 0.0000 -0.0000 -3.4629 -2.3264 -10.5375 -3.0223 -2.4266 12.3480 -2.4713 -26.4087 3.4842 -12.4667 36.3372 14.1912 -6.7669 28.6927 21.0280 -22.9287 -12.2909 -23.5956 -0.0000 -6.9242 -0.0000 -12.8514 2.7839 -3.3266 -0.0000 0.0000 -0.0000 -0.0000 0.0000 -0.0000 -1.4649 -10.1343 -22.2287 -53.3182 -7.5545 30.2080 -0.0000 7.8374 0.0000 7.3845 0.2947 -14.5578 -0.0000 0.0000 -0.0000 -0.0000 0.0000 -0.0000
 -6.9030 32.9334 0.1295 4.4763 -8.5696 0.0762 -2.2833 27.6899 7.1337 2.2775 0.0000 0.0000 -5.3811 -12.3279 0.2124 -7.8921 0.0000 -0.0000 -3.4270 4.2507 -5.5158 4.4373 -0.0000 -0.0000 -8.2875 7.9147 1.8102 -9.2843 0.0000 0.0000 -3.3598 -2.3056 -10.5852 -2.9166 -2.3776 12.2912 -2.4167 -26.4734 3.5020 -12.5653 36.6245 14.4732 -6.8642 28.7200 21.1226 -23.0682 -12.3760 -23.5608 -0.0000 -6.9823 -0.0000 -12.9682 2.6980 -3.3409 -0.0000 0.0000 -0.0000 -0.0000 0.0000 -0.0000 -1.4060 -10.1313 -22.1432 -53.3063 -7.5526 30.5067 -0.0000 7.9618 0.0000 7.3845 0.2532 -14.5551 -0.0000 0.0000 -0.0000 -0.0000 0.0000 -0.0000
 -6.9269 32.9314 0.1090 4.5232 -8.8512 0.0727 -2.4034 27.8489 7.2268 2.3718 0.0000 0.0000 -5.4307 -12.2029 0.1938 -7.8942 0.0000 -0.0000 -3.5365 4.3668 -5.4454 4.4108 -0.0000 0.0000 -8.2574 8.0678 1.8637 -9.2844 0.0000 -0.0000 -3.2672 -2.2633 -10.5638 -2.8254 -2.3161 12.3073 -2.4501 -26.5306 3.4584 -12.8862 37.0484 14.8378 -6.9232 28.8157 21.1608 -23.0880 -12.3961 -23.5602 -0.0000 -7.0242 -0.0000 -12.7910 2.6991 -3.4385 -0.0000 0.0000 -0.0000 -0.0000 0.0000 -0.0000 -1.4025 -10.1264 -22.1382 -53.2008 -7.4015 30.8377 -0.0000 8.0498 0.0000 7.3315 0.2711 -14.5306 -0.0000 -0.0000 0.0000 -0.0000 -0.0000 0.0000
 -6.9445 32.9279 0.1007 4.6032 -9.0610 0.0833 -2.5270 27.9995 7.2958 2.4486 0.0000 0.0000 -5.4802 -12.1592 0.0972 -7.8409 0.0000 -0.0000 -3.6603 4.5257 -5.3970 4.4328 -0.0000 0.0000 -8.2708 8.1084 1.8776 -9.2648 0.0000 0.0000 -3.2093 -2.2252 -10.5321 -2.7509 -2.2676 12.3539 -2.3461 -26.5052 3.4895 -13.4108 37.5445 15.0759 -6.9524 28.8710 21.1720 -23.2555 -12.2986 -23.5668 -0.0000 -6.9669 -0.0000 -12.6770 2.7231 -3.4598 -0.0000 0.0000 -0.0000 -0.0000 0.0000 -0.0000 -1.2820 -10.1232 -22.1275 -52.9915 -7.2156 30.9887 -0.0000 8.1779 0.0000 7.3091 0.2933 -14.5452 -0.0000 0.0000 -0.0000 -0.0000 0.0000 -0.0000
 -6.9572 32.9250 0.1039 4.7298 -9.1814 0.0919 -2.6562 28.0929 7.3438 2.4607 0.0000 0.0000 -5.5136 -12.1407 0.0442 -7.8312 0.0000 0.0000 -3.7806 4.6495 -5.3566 4.4115 -0.0000 0.0000 -8.2711 8.0966 1.9111 -9.2677 0.0000 -0.0000 -3.1901 -2.1726 -10.5131 -2.7115 -2.2145 12.4251 -2.2054 -26.5388 3.5243 -13.8596 38.0639 15.2431 -6.9254 28.9415 21.1702 -23.2522 -12.3761 -23.4703 -0.0000 -6.9770 -0.0000 -12.6044 2.7902 -3.3588 -0.0000 0.0000 -0.0000 -0.0000 0.0000 -0.0000 -1.2035 -10.1580 -22.1180 -52.6115 -7.0728 31.0399 -0.0000 8.3342 0.0000 7.1614 0.3152 -14.6094 -0.0000 0.0000 -0.0000 -0.0000 0.0000 -0.0000
 -6.9685 32.9222 0.1186 4.8271 -9.2582 0.0848 -2.6788 28.0713 7.3643 2.3781 0.0000 -0.0000 -5.5088 -12.0261 -0.0061 -7.8276 0.0000 0.0000 -3.8546 4.6856 -5.3169 4.3995 -0.0000 0.0000 -8.3007 8.1430 1.9517 -9.2455 0.0000 -0.0000 -3.1912 -2.1279 -10.5161 -2.6739 -2.1720 12.4896 -2.0208 -26.4239 3.5697 -14.1424 38.4490 15.4521 -6.9360 29.0004 21.2364 -23.2849 -12.4234 -23.3393 -0.0000 -7.0182 -0.0000 -12.8439 2.7573 -3.3182 -0.0000 0.0000 -0.0000 -0.0000 0.0000 -0.0000 -1.1497 -10.1746 -22.0954 -52.5012 -7.0746 31.1485 -0.0000 8.2996 0.0000 7.1660 0.3008 -14.6169 -0.0000 -0.0000 0.0000 -0.0000 -0.0000 0.0000
 -6.9868 32.9190 0.1394 4.8953 -9.2862 0.0710 -2.7044 28.0292 7.4130 2.3553 -0.0000 -0.0000 -5.5386 -11.9491 -0.0498 -7.7920 0.0000 -0.0000 -3.8925 4.7463 -5.2637 4.4217 -0.0000 0.0000 -8.3396 8.1133 1.9345 -9.2739 0.0000 -0.0000 -3.1852 -2.1066 -10.5416 -2.6247 -2.1489 12.5406 -1.9349 -26.2292 3.6168 -14.1406 38.7480 15.6685 -6.9686 29.0293 21.3441 -23.3300 -12.4440 -23.2061 -0.0000 -6.9607 -0.0000 -12.7895 2.8248 -3.3015 -0.0000 0.0000 -0.0000 -0.0000 0.0000 -0.0000 -1.1030 -10.2037 -22.0567 -52.3853 -7.0757 31.3349 -0.0000 8.3263 0.0000 7.2254 0.2693 -14.5787 -0.0000 0.0000 -0.0000 -0.0000 0.0000 -0.0000
 -6.9984 32.9180 0.1686 4.9636 -9.2533 0.0565 -2.7365 28.0310 7.4537 2.3466 -0.0000 -0.0000 -5.5636 -11.9780 -0.0212 -7.7677 0.0000 -0.0000 -3.8913 4.7529 -5.2274 4.4079 -0.0000 -0.0000 -8.3866 8.0688 1.9288 -9.2131 0.0000 -0.0000 -3.1783 -2.0785 -10.5419 -2.5743 -2.1195 12.5956 -1.8102 -26.0687 3.6899 -14.2542 38.9932 15.8480 -7.0219 29.0425 21.4228 -23.4160 -12.4444 -23.1762 -0.0000 -6.9681 -0.0000 -12.7709 2.8304 -3.3632 -0.0000 0.0000 -0.0000 -0.0000 0.0000 -0.0000 -1.0781 -10.2211 -22.0349 -52.2389 -7.0578 31.4121 -0.0000 8.3402 0.0000 7.2831 0.2142 -14.5425 -0.0000 -0.0000 0.0000 -0.0000 -0.0000 0.0000
 -7.0134 32.9161 0.2057 5.0857 -9.2120 0.0344 -2.7845 28.0035 7.5033 2.2744 0.0000 0.0000 -5.5654 -11.9861 -0.0586 -7.8248 0.0000 -0.0000 -3.8598 4.7234 -5.1769 4.2349 -0.0000 0.0000 -8.3504 8.0369 1.9169 -9.2077 0.0000 0.0000 -3.2266 -2.0502 -10.5210 -2.5780 -2.1075 12.7087 -1.5638 -26.0605 3.8151 -14.4930 39.4501 15.8484 -7.0040 29.1010 21.3864 -23.4299 -12.3895 -23.2936 -0.0000 -7.3332 -0.0000 -12.8850 2.9144 -3.2929 -0.0000 0.0000 -0.0000 -0.0000 0.0000 -0.0000 -1.0810 -10.2300 -22.0115 -52.1336 -6.9719 31.4867 -0.0000 8.5138 0.0000 7.2426 0.1253 -14.5879 -0.0000 0.0000 -0.0000 -0.0000 0.0000 -0.0000
 -7.0295 32.9119 0.2386 5.1823 -9.1922 0.0275 -2.8267 27.9912 7.5493 2.2551 0.0000 0.0000 -5.6048 -11.9833 -0.1447 -7.7823 0.0000 -0.0000 -3.8543 4.7708 -5.1361 4.1727 -0.0000 0.0000 -8.3764 7.9570 1.9192 -9.2268 0.0000 0.0000 -3.2274 -2.0420 -10.4834 -2.5453 -2.1049 12.8297 -1.4174 -25.9254 3.9523 -14.8576 40.0332 15.8508 -6.9892 29.1688 21.2634 -23.4974 -12.1656 -23.6230 -0.0000 -7.5757 -0.0000 -12.7654 2.9173 -3.4319 -0.0000 0.0000 -0.0000 -0.0000 0.0000 -0.0000 -1.0299 -10.2344 -21.9728 -52.1207 -6.7925 31.5968 -0.0000 8.5978 0.0000 7.1974 0.0298 -14.4136 -0.0000 0.0000 -0.0000 -0.0000 0.0000 -0.0000
 -7.0480 32.9102 0.2727 5.3029 -9.1601 0.0317 -2.9139 27.9679 7.5996 2.2778 -0.0000 0.0000 -5.6564 -11.9953 -0.1657 -7.7651 0.0000 -0.0000 -3.8123 4.8000 -5.1044 3.9812 -0.0000 -0.0000 -8.3402 7.8775 1.9245 -9.2161 0.0000 0.0000 -3.2865 -2.0163 -10.4435 -2.4446 -2.0915 12.9191 -1.4844 -25.9253 3.9011 -15.1566 40.4556 16.1881 -6.9448 29.2151 21.0951 -23.5378 -12.0885 -23.9725 -0.0000 -7.4992 -0.0000 -12.6494 3.0263 -3.4869 -0.0000 0.0000 -0.0000 -0.0000 0.0000 -0.0000 -1.0320 -10.2384 -21.9972 -52.0384 -6.6555 31.8217 -0.0000 8.5026 0.0000 6.9873 0.0927 -14.2858 -0.0000 -0.0000 0.0000 -0.0000 -0.0000 0.0000
